<svg id="SvgjsSvg1001" width="288" height="288" xmlns="http://www.w3.org/2000/svg" version="1.1" xmlns:xlink="http://www.w3.org/1999/xlink" xmlns:svgjs="http://svgjs.com/svgjs"><defs id="SvgjsDefs1002"></defs><g id="SvgjsG1008"><svg xmlns="http://www.w3.org/2000/svg" enable-background="new 0 0 500 500" viewBox="0 0 500 500" width="288" height="288"><g opacity=".61"><polygon fill="#ffffff" points="213.765 461.172 208.204 474.017 205.268 474.017 199.726 461.172 202.938 461.172 206.846 470.347 210.81 461.172" class="colorfff svgShape"></polygon><path fill="#ffffff" d="M223.507 469.741h-7.469c.275 1.23 1.321 1.982 2.826 1.982 1.046 0 1.798-.312 2.477-.954l1.523 1.651c-.917 1.046-2.294 1.597-4.074 1.597-3.413 0-5.634-2.147-5.634-5.083 0-2.954 2.257-5.083 5.267-5.083 2.899 0 5.138 1.945 5.138 5.12C223.562 469.191 223.526 469.503 223.507 469.741M216.002 468.071h4.863c-.202-1.248-1.138-2.055-2.422-2.055C217.139 466.016 216.204 466.805 216.002 468.071M224.735 468.934c0-2.973 2.294-5.083 5.505-5.083 2.074 0 3.707.899 4.423 2.514l-2.22 1.193c-.532-.936-1.321-1.358-2.221-1.358-1.45 0-2.587 1.009-2.587 2.734 0 1.725 1.138 2.734 2.587 2.734.899 0 1.688-.404 2.221-1.358l2.22 1.211c-.716 1.578-2.349 2.495-4.423 2.495C227.029 474.017 224.735 471.907 224.735 468.934M242.828 473.393c-.587.422-1.45.624-2.331.624-2.33 0-3.688-1.193-3.688-3.542v-4.055h-1.523v-2.202h1.523v-2.404h2.863v2.404h2.459v2.202h-2.459v4.019c0 .844.458 1.303 1.229 1.303.422 0 .844-.128 1.156-.367L242.828 473.393zM262.474 463.997v2.643c-.238-.018-.422-.037-.642-.037-1.578 0-2.624.862-2.624 2.753v4.661h-2.863v-9.873h2.734v1.303C259.776 464.493 260.951 463.997 262.474 463.997M263.299 472.53l1.009-2.239c1.083.789 2.697 1.339 4.239 1.339 1.762 0 2.477-.587 2.477-1.376 0-2.404-7.469-.752-7.469-5.524 0-2.184 1.762-4 5.413-4 1.615 0 3.267.385 4.459 1.138l-.918 2.257c-1.193-.679-2.422-1.009-3.56-1.009-1.761 0-2.44.66-2.44 1.468 0 2.367 7.468.734 7.468 5.45 0 2.147-1.78 3.982-5.45 3.982C266.492 474.017 264.437 473.411 263.299 472.53M285.428 469.741h-7.469c.275 1.23 1.321 1.982 2.826 1.982 1.046 0 1.798-.312 2.477-.954l1.523 1.651c-.918 1.046-2.294 1.597-4.074 1.597-3.413 0-5.634-2.147-5.634-5.083 0-2.954 2.257-5.083 5.267-5.083 2.9 0 5.138 1.945 5.138 5.12C285.484 469.191 285.447 469.503 285.428 469.741M277.923 468.071h4.863c-.202-1.248-1.138-2.055-2.422-2.055C279.061 466.016 278.125 466.805 277.923 468.071M297.007 469.741h-7.469c.275 1.23 1.321 1.982 2.826 1.982 1.046 0 1.798-.312 2.477-.954l1.523 1.651c-.918 1.046-2.294 1.597-4.074 1.597-3.413 0-5.634-2.147-5.634-5.083 0-2.954 2.257-5.083 5.267-5.083 2.899 0 5.138 1.945 5.138 5.12C297.062 469.191 297.025 469.503 297.007 469.741M289.501 468.071h4.863c-.202-1.248-1.138-2.055-2.422-2.055C290.639 466.016 289.703 466.805 289.501 468.071" class="colorfff svgShape"></path><polygon fill="#ffffff" points="303.208 470.145 301.831 471.503 301.831 474.017 298.969 474.017 298.969 460.401 301.831 460.401 301.831 468.108 306.016 464.144 309.429 464.144 305.318 468.328 309.796 474.017 306.327 474.017" class="colorfff svgShape"></polygon><path fill="#ffffff" d="M256.601,475.359L256.601,475.359l-2.86-2.86c-0.435,0.508-0.953,0.943-1.534,1.284
							c-0.092,0.069-0.186,0.136-0.283,0.199l3.027,3.027c0.456,0.456,1.195,0.456,1.65,0
							C257.057,476.554,257.057,475.815,256.601,475.359" class="colorfff svgShape"></path><path fill="#ffffff" d="M249.984,463.244c0.221-0.173,0.495-0.281,0.797-0.281c0.042,0,0.083,0.002,0.124,0.006
							c-0.214-0.156-0.478-0.249-0.764-0.249c-0.395,0-0.744,0.18-0.981,0.458c-0.051,0-0.1,0.006-0.151,0.008
							c0.039-0.077,0.064-0.162,0.064-0.255c0-0.234-0.143-0.434-0.346-0.519c0.087,0.126,0.138,0.279,0.138,0.445
							c0,0.122-0.031,0.237-0.081,0.341c-2.811,0.201-5.03,2.539-5.03,5.4c0,2.993,2.426,5.42,5.42,5.42
							c2.993,0,5.42-2.426,5.42-5.42C254.595,465.879,252.593,463.635,249.984,463.244 M247.983,464.656
							c0.435,0,0.844,0.112,1.199,0.309c0.374-0.245,0.82-0.387,1.299-0.387c0.711,0,1.348,0.312,1.784,0.806
							c-0.435-0.379-1.004-0.61-1.627-0.61c-0.449,0-0.87,0.12-1.234,0.329c-0.079,0.046-0.156,0.096-0.229,0.15
							c-0.065-0.048-0.133-0.093-0.204-0.134c-0.369-0.219-0.8-0.344-1.26-0.344c-0.3,0-0.588,0.054-0.854,0.152
							C247.196,464.754,247.578,464.656,247.983,464.656 M251.772,469.098c0.115,0.305,0.181,0.634,0.181,0.979
							c0,1.534-1.244,2.777-2.778,2.777c-1.534,0-2.777-1.243-2.777-2.777c0-0.345,0.066-0.674,0.181-0.979
							c-0.62-0.382-1.035-1.064-1.035-1.846c0-1.197,0.971-2.168,2.168-2.168c0.565,0,1.078,0.218,1.463,0.572
							c0.386-0.354,0.899-0.572,1.464-0.572c1.197,0,2.168,0.971,2.168,2.168C252.807,468.034,252.392,468.716,251.772,469.098" class="colorfff svgShape"></path><g><path fill="#ffffff" d="M251.666,467.061c0,0.497-0.404,0.901-0.901,0.901c-0.497,0-0.901-0.404-0.901-0.901
							s0.404-0.901,0.901-0.901c0.101,0,0.197,0.017,0.287,0.047c-0.03,0.062-0.045,0.132-0.045,0.204
							c0,0.273,0.221,0.494,0.494,0.494c0.05,0,0.099-0.008,0.146-0.022C251.66,466.941,251.666,467,251.666,467.061" class="colorfff svgShape"></path></g><g><path fill="#ffffff" d="M248.255,467.061c0,0.376-0.305,0.681-0.681,0.681c-0.376,0-0.681-0.305-0.681-0.681
							s0.305-0.681,0.681-0.681c0.076,0,0.149,0.013,0.217,0.035c-0.023,0.047-0.034,0.1-0.034,0.155
							c0,0.206,0.167,0.374,0.374,0.374c0.038,0,0.075-0.006,0.11-0.017C248.25,466.97,248.255,467.015,248.255,467.061" class="colorfff svgShape"></path></g><g><rect width=".616" height=".616" x="242.908" y="467.83" fill="#ffffff" class="colorfff svgShape"></rect><rect width=".616" height=".616" x="254.827" y="467.83" fill="#ffffff" class="colorfff svgShape"></rect><path fill="#ffffff" d="M255.205,468.082h-0.14c0-3.248-2.642-5.89-5.89-5.89c-3.248,0-5.89,2.642-5.89,5.89h-0.14
									c0-1.611,0.627-3.125,1.766-4.264c1.139-1.139,2.653-1.766,4.264-1.766c1.611,0,3.125,0.627,4.264,1.766
									C254.578,464.957,255.205,466.471,255.205,468.082" class="colorfff svgShape"></path><rect width=".616" height=".616" x="248.868" y="461.814" fill="#ffffff" class="colorfff svgShape"></rect><rect width="8.45" height=".14" x="244.95" y="462.052" fill="#ffffff" class="colorfff svgShape"></rect><g><path fill="#ffffff" d="M245.174,462.15c0,0.108-0.088,0.196-0.196,0.196c-0.108,0-0.196-0.088-0.196-0.196
								c0-0.108,0.088-0.196,0.196-0.196C245.086,461.954,245.174,462.042,245.174,462.15" class="colorfff svgShape"></path></g><g><path fill="#ffffff" d="M253.596,462.15c0,0.108-0.088,0.196-0.196,0.196c-0.108,0-0.196-0.088-0.196-0.196
								c0-0.108,0.088-0.196,0.196-0.196C253.509,461.954,253.596,462.042,253.596,462.15" class="colorfff svgShape"></path></g></g><g><path fill="#ffffff" d="M314.356,473.409c0,1.559-2.364,1.559-2.364,0C311.993,471.851,314.356,471.851,314.356,473.409
						z" class="colorfff svgShape"></path></g><g><path fill="#ffffff" d="M161.739 466.549l1.772 6.088 1.855-6.088h2.215l-2.823 8.14h-2.33l-.837-2.396-.722-2.708-.722 2.708-.837 2.396h-2.33l-2.839-8.14h2.231l1.855 6.088 1.756-6.088H161.739zM176.713 466.549l1.772 6.088 1.855-6.088h2.215l-2.823 8.14h-2.33l-.837-2.396-.722-2.708-.722 2.708-.837 2.396h-2.33l-2.839-8.14h2.231l1.855 6.088 1.756-6.088H176.713zM191.687 466.549l1.772 6.088 1.855-6.088h2.215l-2.823 8.14h-2.33l-.837-2.396-.722-2.708-.722 2.708-.837 2.396h-2.33l-2.839-8.14h2.231l1.855 6.088 1.756-6.088H191.687zM200.908 473.52c0 1.559-2.364 1.559-2.364 0C198.545 471.962 200.908 471.962 200.908 473.52zM322.71 473.409c-.935.919-1.919 1.28-3.117 1.28-2.346 0-4.3-1.411-4.3-4.282s1.953-4.284 4.3-4.284c1.149 0 2.035.329 2.921 1.199l-1.264 1.329c-.476-.428-1.066-.64-1.623-.64-1.346 0-2.33.985-2.33 2.396 0 1.542 1.05 2.362 2.297 2.362.64 0 1.28-.18 1.772-.672L322.71 473.409z" class="colorfff svgShape"></path><g><path fill="#ffffff" d="M331.805,470.472c0,2.33-1.591,4.217-4.217,4.217c-2.626,0-4.201-1.887-4.201-4.217
							c0-2.314,1.609-4.217,4.185-4.217C330.149,466.255,331.805,468.158,331.805,470.472z M325.389,470.472
							c0,1.231,0.739,2.38,2.199,2.38c1.46,0,2.199-1.149,2.199-2.38c0-1.215-0.854-2.396-2.199-2.396
							C326.144,468.077,325.389,469.258,325.389,470.472z" class="colorfff svgShape"></path></g><g><path fill="#ffffff" d="M338.572,474.689v-4.332c0-1.068-0.559-2.035-1.658-2.035c-1.082,0-1.722,0.967-1.722,2.035
							v4.332h-2.003v-8.107h1.855l0.148,0.985c0.426-0.82,1.362-1.116,2.133-1.116c0.969,0,1.937,0.394,2.396,1.51
							c0.723-1.149,1.658-1.478,2.708-1.478c2.297,0,3.43,1.412,3.43,3.84v4.365h-2.003v-4.365c0-1.066-0.442-1.97-1.526-1.97
							c-1.082,0-1.756,0.935-1.756,2.003v4.332H338.572z" class="colorfff svgShape"></path></g></g></g><g opacity=".61"><path fill="#ffffff" d="M345.988,431.299c-0.006-1.224-0.959-2.121-2.189-2.14c-0.924-0.014-0.832,0.12-0.834-0.867
						c-0.003-1.097-0.007-2.194,0.003-3.292c0.003-0.379-0.112-0.691-0.362-0.976c-2.342-2.668-4.678-5.342-7.019-8.011
						c-0.12-0.137-0.275-0.244-0.414-0.366c-6.214,0-12.427,0-18.641,0c-0.794,0.293-1.14,0.868-1.138,1.709
						c0.01,3.748,0.004,7.496,0.004,11.243c0,0.556-0.003,0.589-0.55,0.551c-1.497-0.102-2.516,0.986-2.497,2.492
						c0.044,3.476,0.013,6.953,0.014,10.429c0.001,1.58,0.867,2.443,2.45,2.449c0.582,0.002,0.582,0.002,0.582,0.6
						c0,2.219-0.001,4.438,0.001,6.657c0.001,1.192,0.58,1.771,1.768,1.771c8.013,0.001,16.027,0.001,24.04,0
						c1.168,0,1.755-0.583,1.757-1.745c0.002-2.256,0-4.512,0.001-6.768c0-0.512,0.002-0.511,0.52-0.515
						c0.271-0.002,0.541,0.008,0.809-0.058c0.996-0.246,1.69-1.044,1.694-2.069C346.003,438.696,346.005,434.997,345.988,431.299z
						 M317.537,417.162c5.337,0,10.674,0,16.01,0c0.548,0,0.554,0.007,0.554,0.561c0.001,2.243-0.001,4.486,0.001,6.73
						c0.001,0.811,0.249,1.059,1.06,1.059c1.91,0.001,3.821,0,5.731,0.001c0.458,0,0.479,0.021,0.481,0.483
						c0.003,0.887,0.002,1.775,0,2.662c-0.001,0.477-0.024,0.498-0.504,0.499c-3.895,0.001-7.79,0-11.684,0
						c-3.882,0-7.765,0-11.647,0c-0.55,0-0.552-0.001-0.552-0.561c-0.001-3.624-0.001-7.247,0-10.871
						C316.987,417.166,316.991,417.162,317.537,417.162z M340.822,451.579c-3.883,0.001-7.766,0-11.65,0c-3.871,0-7.742,0-11.613,0
						c-0.572,0-0.574-0.002-0.574-0.579c-0.001-1.997-0.001-3.994,0.001-5.991c0-0.464,0.023-0.486,0.478-0.487
						c7.803-0.001,15.607-0.001,23.41,0c0.478,0,0.499,0.02,0.499,0.503c0.002,1.997,0.001,3.994,0,5.991
						C341.375,451.574,341.37,451.579,340.822,451.579z" class="colorfff svgShape"></path><rect width="1.757" height="1.054" x="327.418" y="417.053" fill="#ffffff" class="colorfff svgShape"></rect><rect width="1.757" height="1.054" x="325.662" y="418.107" fill="#ffffff" class="colorfff svgShape"></rect><rect width="1.757" height="1.054" x="327.418" y="419.161" fill="#ffffff" class="colorfff svgShape"></rect><rect width="1.757" height="1.054" x="325.662" y="420.215" fill="#ffffff" class="colorfff svgShape"></rect><rect width="1.757" height="1.054" x="327.418" y="421.269" fill="#ffffff" class="colorfff svgShape"></rect><rect width="1.757" height="1.054" x="325.662" y="422.323" fill="#ffffff" class="colorfff svgShape"></rect><rect width="1.757" height="1.054" x="327.418" y="423.378" fill="#ffffff" class="colorfff svgShape"></rect><rect width="1.757" height="1.054" x="325.662" y="424.432" fill="#ffffff" class="colorfff svgShape"></rect><rect width="1.757" height="1.054" x="327.418" y="425.486" fill="#ffffff" class="colorfff svgShape"></rect><rect width="1.757" height="1.054" x="325.662" y="426.54" fill="#ffffff" class="colorfff svgShape"></rect><rect width="1.757" height="1.054" x="327.418" y="427.594" fill="#ffffff" class="colorfff svgShape"></rect><rect width="1.757" height="1.054" x="325.662" y="428.648" fill="#ffffff" class="colorfff svgShape"></rect><g><path fill="#ffffff" d="M187.637,431.299c-0.006-1.224-0.959-2.121-2.189-2.14c-0.924-0.014-0.832,0.12-0.834-0.867
					c-0.003-1.097-0.007-2.194,0.003-3.292c0.003-0.379-0.112-0.691-0.362-0.976c-2.342-2.668-4.678-5.342-7.019-8.011
					c-0.12-0.137-0.275-0.244-0.414-0.366c-6.214,0-12.427,0-18.641,0c-0.794,0.293-1.14,0.868-1.138,1.709
					c0.01,3.748,0.004,7.496,0.004,11.243c0,0.556-0.003,0.589-0.55,0.551c-1.497-0.102-2.516,0.986-2.497,2.492
					c0.044,3.476,0.013,6.953,0.014,10.429c0.001,1.58,0.867,2.443,2.45,2.449c0.582,0.002,0.582,0.002,0.582,0.6
					c0,2.219-0.001,4.438,0.001,6.657c0.001,1.192,0.58,1.771,1.768,1.771c8.013,0.001,16.027,0.001,24.04,0
					c1.168,0,1.755-0.583,1.757-1.745c0.002-2.256,0-4.512,0.001-6.768c0-0.512,0.002-0.511,0.52-0.515
					c0.271-0.002,0.541,0.008,0.809-0.058c0.996-0.246,1.69-1.044,1.694-2.069C187.652,438.696,187.655,434.997,187.637,431.299z
					 M159.187,417.162c5.337,0,10.674,0,16.01,0c0.548,0,0.554,0.007,0.554,0.561c0.001,2.243-0.001,4.486,0.001,6.73
					c0.001,0.811,0.249,1.059,1.06,1.059c1.91,0.001,3.821,0,5.731,0.001c0.458,0,0.479,0.021,0.481,0.483
					c0.003,0.887,0.002,1.775,0,2.662c-0.001,0.477-0.024,0.498-0.504,0.499c-3.895,0.001-7.79,0-11.684,0
					c-3.882,0-7.765,0-11.647,0c-0.55,0-0.552-0.001-0.552-0.561c-0.001-3.624-0.001-7.247,0-10.871
					C158.636,417.166,158.64,417.162,159.187,417.162z M182.472,451.579c-3.883,0.001-7.766,0-11.65,0c-3.871,0-7.742,0-11.613,0
					c-0.572,0-0.574-0.002-0.574-0.579c-0.001-1.997-0.001-3.994,0.001-5.991c0-0.464,0.023-0.486,0.478-0.487
					c7.803-0.001,15.607-0.001,23.41,0c0.478,0,0.499,0.02,0.499,0.503c0.002,1.997,0.001,3.994,0,5.991
					C183.024,451.574,183.019,451.579,182.472,451.579z" class="colorfff svgShape"></path></g><g><path fill="#ffffff" d="M159.779 440.669v-7.897h2.779c.375 0 .726.061 1.053.182.327.121.612.292.855.513.242.221.434.483.573.789.14.305.21.642.21 1.009 0 .375-.07.715-.21 1.02-.14.305-.331.568-.573.789-.243.221-.528.392-.855.513-.327.121-.678.182-1.053.182h-1.29v2.901H159.779zM162.58 436.356c.39 0 .684-.111.882-.331.199-.22.298-.474.298-.761 0-.14-.024-.276-.072-.408-.048-.132-.121-.248-.221-.347-.099-.099-.223-.178-.37-.237-.147-.059-.32-.089-.518-.089h-1.312v2.173H162.58zM166.308 432.771h1.731l3.177 5.294h.088l-.088-1.522v-3.772h1.478v7.897h-1.566l-3.353-5.592h-.088l.088 1.522v4.07h-1.467V432.771zM177.922 436.334h3.872c.022.089.04.195.055.32.014.125.022.25.022.375 0 .507-.077.985-.231 1.434-.154.449-.397.849-.728 1.202-.353.375-.776.666-1.268.871-.493.206-1.055.309-1.688.309-.574 0-1.114-.103-1.622-.309-.507-.206-.948-.492-1.323-.86-.375-.367-.673-.803-.894-1.307-.221-.504-.331-1.053-.331-1.649 0-.595.11-1.145.331-1.649.221-.504.518-.939.894-1.307.375-.367.816-.654 1.323-.86.507-.206 1.048-.309 1.622-.309.64 0 1.211.11 1.715.331.504.221.935.526 1.296.915l-1.025 1.004c-.258-.272-.544-.48-.861-.623-.316-.143-.695-.215-1.136-.215-.361 0-.703.065-1.026.193-.324.129-.607.311-.85.546-.242.235-.436.52-.579.855-.143.335-.215.708-.215 1.119 0 .412.072.785.215 1.12.143.335.338.62.584.855.246.235.531.418.855.546.323.129.669.193 1.037.193.419 0 .773-.061 1.064-.182.29-.121.538-.278.744-.469.148-.132.275-.3.381-.502.106-.202.189-.428.248-.678h-2.482V436.334z" class="colorfff svgShape"></path></g><g><path fill="#ffffff" d="M224.019,431.299c-0.006-1.224-0.959-2.121-2.189-2.14c-0.924-0.014-0.832,0.12-0.834-0.867
					c-0.003-1.097-0.007-2.194,0.003-3.292c0.003-0.379-0.112-0.691-0.362-0.976c-2.342-2.668-4.678-5.342-7.019-8.011
					c-0.12-0.137-0.275-0.244-0.414-0.366c-6.214,0-12.427,0-18.641,0c-0.794,0.293-1.14,0.868-1.138,1.709
					c0.01,3.748,0.004,7.496,0.004,11.243c0,0.556-0.003,0.589-0.55,0.551c-1.497-0.102-2.516,0.986-2.497,2.492
					c0.044,3.476,0.013,6.953,0.014,10.429c0.001,1.58,0.867,2.443,2.45,2.449c0.582,0.002,0.582,0.002,0.582,0.6
					c0,2.219-0.001,4.438,0.001,6.657c0.001,1.192,0.58,1.771,1.768,1.771c8.013,0.001,16.027,0.001,24.04,0
					c1.168,0,1.755-0.583,1.757-1.745c0.002-2.256,0-4.512,0.001-6.768c0-0.512,0.002-0.511,0.52-0.515
					c0.271-0.002,0.541,0.008,0.809-0.058c0.997-0.246,1.69-1.044,1.694-2.069C224.034,438.696,224.036,434.997,224.019,431.299z
					 M195.568,417.162c5.337,0,10.674,0,16.01,0c0.548,0,0.554,0.007,0.554,0.561c0.001,2.243-0.001,4.486,0.001,6.73
					c0.001,0.811,0.249,1.059,1.06,1.059c1.91,0.001,3.821,0,5.731,0.001c0.458,0,0.479,0.021,0.481,0.483
					c0.003,0.887,0.002,1.775,0,2.662c-0.001,0.477-0.024,0.498-0.504,0.499c-3.895,0.001-7.79,0-11.684,0
					c-3.882,0-7.765,0-11.647,0c-0.55,0-0.552-0.001-0.552-0.561c-0.001-3.624-0.001-7.247,0-10.871
					C195.018,417.166,195.022,417.162,195.568,417.162z M218.854,451.579c-3.883,0.001-7.766,0-11.65,0c-3.871,0-7.742,0-11.613,0
					c-0.572,0-0.574-0.002-0.574-0.579c-0.001-1.997-0.001-3.994,0.001-5.991c0-0.464,0.023-0.486,0.478-0.487
					c7.803-0.001,15.607-0.001,23.41,0c0.478,0,0.499,0.02,0.499,0.503c0.002,1.997,0.001,3.994,0,5.991
					C219.406,451.574,219.401,451.579,218.854,451.579z" class="colorfff svgShape"></path></g><g><path fill="#ffffff" d="M205.111 432.771h1.699l2.967 7.897h-1.644l-.651-1.886h-3.044l-.651 1.886h-1.643L205.111 432.771zM206.997 437.415l-.706-1.974-.287-.96h-.088l-.287.96-.706 1.974H206.997zM211.331 434.536c-.125 0-.245-.024-.359-.072-.114-.048-.213-.114-.298-.199-.084-.084-.151-.182-.198-.292-.048-.11-.072-.232-.072-.364s.024-.254.072-.364c.048-.11.114-.208.198-.292.084-.084.184-.151.298-.198.114-.048.233-.072.359-.072.257 0 .478.09.662.27.184.181.276.399.276.656s-.092.476-.276.656C211.809 434.446 211.589 434.536 211.331 434.536zM210.615 440.669v-5.404h1.445v5.404H210.615z" class="colorfff svgShape"></path></g><g><path fill="#ffffff" d="M261.044,431.299c-0.006-1.224-0.959-2.121-2.189-2.14c-0.924-0.014-0.832,0.12-0.834-0.867
					c-0.003-1.097-0.007-2.194,0.003-3.292c0.003-0.379-0.112-0.691-0.362-0.976c-2.342-2.668-4.678-5.342-7.019-8.011
					c-0.12-0.137-0.275-0.244-0.414-0.366c-6.214,0-12.427,0-18.641,0c-0.794,0.293-1.14,0.868-1.138,1.709
					c0.01,3.748,0.004,7.496,0.004,11.243c0,0.556-0.003,0.589-0.55,0.551c-1.497-0.102-2.516,0.986-2.497,2.492
					c0.044,3.476,0.013,6.953,0.014,10.429c0.001,1.58,0.867,2.443,2.45,2.449c0.582,0.002,0.582,0.002,0.582,0.6
					c0,2.219-0.001,4.438,0.001,6.657c0.001,1.192,0.58,1.771,1.768,1.771c8.013,0.001,16.027,0.001,24.04,0
					c1.168,0,1.755-0.583,1.757-1.745c0.002-2.256,0-4.512,0.001-6.768c0-0.512,0.002-0.511,0.52-0.515
					c0.271-0.002,0.541,0.008,0.809-0.058c0.996-0.246,1.69-1.044,1.694-2.069C261.059,438.696,261.061,434.997,261.044,431.299z
					 M232.593,417.162c5.337,0,10.674,0,16.01,0c0.548,0,0.554,0.007,0.554,0.561c0.001,2.243-0.001,4.486,0.001,6.73
					c0.001,0.811,0.249,1.059,1.06,1.059c1.91,0.001,3.821,0,5.731,0.001c0.458,0,0.479,0.021,0.481,0.483
					c0.003,0.887,0.002,1.775,0,2.662c-0.001,0.477-0.024,0.498-0.504,0.499c-3.895,0.001-7.79,0-11.684,0
					c-3.882,0-7.765,0-11.647,0c-0.55,0-0.552-0.001-0.552-0.561c-0.001-3.624-0.001-7.247,0-10.871
					C232.042,417.166,232.047,417.162,232.593,417.162z M255.878,451.579c-3.883,0.001-7.766,0-11.65,0c-3.871,0-7.742,0-11.613,0
					c-0.572,0-0.574-0.002-0.574-0.579c-0.001-1.997-0.001-3.994,0.001-5.991c0-0.464,0.023-0.486,0.478-0.487
					c7.803-0.001,15.607-0.001,23.41,0c0.478,0,0.499,0.02,0.499,0.503c0.002,1.997,0.001,3.994,0,5.991
					C256.431,451.574,256.426,451.579,255.878,451.579z" class="colorfff svgShape"></path></g><g><path fill="#ffffff" d="M236.361 440.845c-.338 0-.662-.048-.971-.143-.309-.095-.592-.239-.849-.43-.257-.191-.481-.425-.673-.7-.191-.276-.342-.597-.452-.965l1.401-.551c.103.397.283.726.54.987.257.261.596.392 1.015.392.154 0 .303-.02.447-.061.143-.04.272-.099.386-.176s.204-.175.27-.292c.066-.118.099-.254.099-.408 0-.147-.026-.279-.077-.397-.051-.117-.138-.227-.259-.331-.121-.103-.28-.202-.475-.298-.195-.095-.435-.195-.722-.298l-.485-.176c-.213-.073-.429-.173-.645-.298-.217-.125-.413-.276-.59-.452-.177-.176-.322-.384-.436-.623-.114-.239-.171-.509-.171-.81 0-.309.06-.597.182-.866.121-.268.294-.503.518-.706.224-.202.492-.36.805-.474s.66-.171 1.042-.171c.397 0 .74.053 1.031.16.291.107.537.243.739.408.202.165.366.348.491.546.125.199.217.386.276.563l-1.312.551c-.074-.221-.208-.419-.402-.596-.195-.176-.462-.265-.8-.265-.324 0-.592.075-.805.226-.213.151-.32.348-.32.59 0 .235.103.436.309.601.206.165.533.325.982.48l.497.165c.316.111.605.237.866.381.261.143.485.314.673.513.187.199.331.425.43.678.1.254.149.546.149.877 0 .412-.083.767-.248 1.064-.165.298-.377.542-.634.734-.258.191-.548.335-.872.43C236.986 440.797 236.67 440.845 236.361 440.845zM239.516 432.771h1.61l1.633 4.754.287 1.015h.088l.309-1.015 1.699-4.754h1.61l-2.879 7.897h-1.566L239.516 432.771zM251.097 436.334h3.871c.022.089.04.195.055.32.015.125.023.25.023.375 0 .507-.078.985-.232 1.434-.154.449-.397.849-.728 1.202-.353.375-.775.666-1.268.871-.493.206-1.055.309-1.688.309-.574 0-1.114-.103-1.621-.309-.507-.206-.949-.492-1.324-.86-.375-.367-.673-.803-.894-1.307-.22-.504-.331-1.053-.331-1.649 0-.595.11-1.145.331-1.649.221-.504.518-.939.894-1.307.375-.367.816-.654 1.324-.86.507-.206 1.047-.309 1.621-.309.64 0 1.211.11 1.715.331.504.221.936.526 1.296.915l-1.026 1.004c-.257-.272-.544-.48-.861-.623-.316-.143-.694-.215-1.136-.215-.36 0-.702.065-1.026.193-.323.129-.607.311-.849.546-.243.235-.436.52-.579.855-.143.335-.215.708-.215 1.119 0 .412.072.785.215 1.12.143.335.338.62.585.855.246.235.531.418.854.546.324.129.669.193 1.037.193.419 0 .774-.061 1.064-.182.29-.121.539-.278.745-.469.147-.132.274-.3.38-.502.107-.202.189-.428.248-.678h-2.482V436.334z" class="colorfff svgShape"></path></g><g><path fill="#ffffff" d="M297.3,431.299c-0.006-1.224-0.959-2.121-2.189-2.14c-0.924-0.014-0.832,0.12-0.834-0.867
					c-0.003-1.097-0.007-2.194,0.003-3.292c0.003-0.379-0.112-0.691-0.362-0.976c-2.342-2.668-4.678-5.342-7.019-8.011
					c-0.12-0.137-0.275-0.244-0.414-0.366c-6.214,0-12.427,0-18.641,0c-0.794,0.293-1.14,0.868-1.138,1.709
					c0.01,3.748,0.004,7.496,0.004,11.243c0,0.556-0.003,0.589-0.55,0.551c-1.497-0.102-2.516,0.986-2.497,2.492
					c0.044,3.476,0.013,6.953,0.014,10.429c0.001,1.58,0.867,2.443,2.45,2.449c0.582,0.002,0.582,0.002,0.582,0.6
					c0,2.219-0.001,4.438,0.001,6.657c0.001,1.192,0.58,1.771,1.768,1.771c8.013,0.001,16.027,0.001,24.04,0
					c1.168,0,1.755-0.583,1.757-1.745c0.002-2.256,0-4.512,0.001-6.768c0-0.512,0.002-0.511,0.52-0.515
					c0.271-0.002,0.541,0.008,0.809-0.058c0.996-0.246,1.69-1.044,1.694-2.069C297.315,438.696,297.318,434.997,297.3,431.299z
					 M268.85,417.162c5.337,0,10.674,0,16.01,0c0.548,0,0.554,0.007,0.554,0.561c0.001,2.243-0.001,4.486,0.001,6.73
					c0.001,0.811,0.249,1.059,1.06,1.059c1.91,0.001,3.821,0,5.731,0.001c0.458,0,0.479,0.021,0.481,0.483
					c0.003,0.887,0.002,1.775,0,2.662c-0.001,0.477-0.024,0.498-0.504,0.499c-3.895,0.001-7.79,0-11.684,0
					c-3.882,0-7.765,0-11.647,0c-0.55,0-0.552-0.001-0.552-0.561c-0.001-3.624-0.001-7.247,0-10.871
					C268.299,417.166,268.303,417.162,268.85,417.162z M292.135,451.579c-3.883,0.001-7.766,0-11.65,0c-3.871,0-7.742,0-11.613,0
					c-0.572,0-0.574-0.002-0.574-0.579c-0.001-1.997-0.001-3.994,0.001-5.991c0-0.464,0.023-0.486,0.478-0.487
					c7.803-0.001,15.607-0.001,23.41,0c0.478,0,0.499,0.02,0.499,0.503c0.001,1.997,0.001,3.994,0,5.991
					C292.687,451.574,292.682,451.579,292.135,451.579z" class="colorfff svgShape"></path></g><g><path fill="#ffffff" d="M272.966 434.183v1.831h3.165v1.412h-3.165v1.831h3.518v1.412h-5.007v-7.897h5.007v1.412H272.966zM277.852 440.669v-7.897h2.779c.375 0 .726.061 1.053.182.327.121.612.292.855.513.243.221.434.483.574.789.14.305.209.642.209 1.009 0 .375-.07.715-.209 1.02-.14.305-.331.568-.574.789-.243.221-.528.392-.855.513-.327.121-.678.182-1.053.182h-1.29v2.901H277.852zM280.653 436.356c.389 0 .684-.111.882-.331.199-.22.298-.474.298-.761 0-.14-.024-.276-.072-.408-.048-.132-.121-.248-.221-.347-.099-.099-.222-.178-.37-.237-.147-.059-.32-.089-.518-.089h-1.312v2.173H280.653zM286.797 440.845c-.338 0-.662-.048-.971-.143-.309-.095-.592-.239-.849-.43-.257-.191-.482-.425-.673-.7-.191-.276-.342-.597-.452-.965l1.401-.551c.103.397.283.726.541.987.257.261.595.392 1.015.392.154 0 .303-.02.447-.061.143-.04.272-.099.386-.176.114-.077.204-.175.27-.292.066-.118.1-.254.1-.408 0-.147-.026-.279-.077-.397-.051-.117-.138-.227-.259-.331-.121-.103-.279-.202-.474-.298-.195-.095-.436-.195-.723-.298l-.485-.176c-.213-.073-.428-.173-.645-.298-.217-.125-.414-.276-.59-.452-.176-.176-.322-.384-.436-.623-.114-.239-.171-.509-.171-.81 0-.309.061-.597.182-.866.121-.268.294-.503.518-.706.224-.202.493-.36.805-.474.312-.114.66-.171 1.042-.171.397 0 .741.053 1.031.16.29.107.537.243.739.408.202.165.365.348.491.546.125.199.217.386.276.563l-1.312.551c-.074-.221-.208-.419-.403-.596-.195-.176-.462-.265-.799-.265-.324 0-.592.075-.805.226-.213.151-.32.348-.32.59 0 .235.103.436.309.601.206.165.533.325.982.48l.496.165c.316.111.605.237.866.381.261.143.485.314.673.513.187.199.331.425.43.678.099.254.149.546.149.877 0 .412-.083.767-.248 1.064-.165.298-.377.542-.634.734-.258.191-.548.335-.872.43C287.422 440.797 287.105 440.845 286.797 440.845z" class="colorfff svgShape"></path></g><g><path fill="#ffffff" d="M321.394 439.168l4.004-4.985h-3.827v-1.412h5.559v1.5l-3.96 4.985h4.004v1.412h-5.779V439.168zM328.409 432.771h1.489v7.897h-1.489V432.771zM331.486 440.669v-7.897h2.779c.375 0 .726.061 1.053.182.327.121.612.292.855.513s.434.483.574.789c.14.305.209.642.209 1.009 0 .375-.07.715-.209 1.02-.14.305-.331.568-.574.789-.243.221-.528.392-.855.513-.327.121-.678.182-1.053.182h-1.29v2.901H331.486zM334.288 436.356c.389 0 .684-.111.882-.331.199-.22.298-.474.298-.761 0-.14-.024-.276-.072-.408-.048-.132-.121-.248-.221-.347-.099-.099-.222-.178-.37-.237-.147-.059-.32-.089-.518-.089h-1.312v2.173H334.288z" class="colorfff svgShape"></path></g></g><path fill="#ffffff" d="M300.133,433.27h9.067v2.242h-9.067V433.27z M300.133,437.136h9.067v2.243h-9.067V437.136z" opacity=".61" class="colorfff svgShape"></path><g opacity=".61"><path fill="#ffffff" d="M156.756 478.878h1.607c1.263 0 2.114.812 2.114 1.974 0 1.161-.851 1.973-2.114 1.973h-1.607V478.878zM158.34 482.464c1.049 0 1.725-.665 1.725-1.612 0-.947-.677-1.613-1.725-1.613h-1.167v3.225H158.34zM165.139 480.851c0-1.15.879-2.007 2.075-2.007 1.184 0 2.069.851 2.069 2.007 0 1.156-.885 2.007-2.069 2.007C166.019 482.858 165.139 482.002 165.139 480.851zM168.866 480.851c0-.942-.705-1.635-1.652-1.635-.953 0-1.663.693-1.663 1.635 0 .941.71 1.635 1.663 1.635C168.162 482.486 168.866 481.793 168.866 480.851zM179.596 478.878l-1.331 3.947h-.44l-1.156-3.366-1.161 3.366h-.434l-1.331-3.947h.429l1.139 3.394 1.178-3.394h.389l1.161 3.411 1.156-3.411H179.596zM187.731 478.878v3.947h-.344l-2.537-3.202v3.202h-.417v-3.947h.344l2.543 3.203v-3.203H187.731zM193.093 478.878h.417v3.586h2.21v.361h-2.627V478.878zM200.061 480.851c0-1.15.879-2.007 2.075-2.007 1.184 0 2.069.851 2.069 2.007 0 1.156-.885 2.007-2.069 2.007C200.941 482.858 200.061 482.002 200.061 480.851zM203.788 480.851c0-.942-.705-1.635-1.652-1.635-.953 0-1.663.693-1.663 1.635 0 .941.71 1.635 1.663 1.635C203.083 482.486 203.788 481.793 203.788 480.851zM211.636 481.77h-2.199l-.474 1.054h-.434l1.804-3.947h.412l1.804 3.947h-.44L211.636 481.77zM211.484 481.432l-.947-2.12-.947 2.12H211.484zM217.28 478.878h1.607c1.263 0 2.114.812 2.114 1.974 0 1.161-.851 1.973-2.114 1.973h-1.607V478.878zM218.864 482.464c1.049 0 1.725-.665 1.725-1.612 0-.947-.677-1.613-1.725-1.613h-1.167v3.225H218.864zM234.041 481.77h-2.199l-.474 1.054h-.434l1.804-3.947h.412l1.804 3.947h-.44L234.041 481.77zM233.889 481.432l-.947-2.12-.947 2.12H233.889zM239.685 478.878h.417v3.586h2.21v.361h-2.627V478.878zM247.082 478.878h.417v3.586h2.21v.361h-2.627V478.878zM260.449 479.239v1.551h2.041v.361h-2.041v1.675h-.417v-3.947h2.706v.361H260.449zM267.678 478.878h.417v3.947h-.417V478.878zM273.456 478.878h.417v3.586h2.21v.361h-2.627V478.878zM283.644 482.464v.361h-2.791v-3.947h2.706v.361h-2.289v1.404h2.041v.355h-2.041v1.466H283.644zM294.672 479.239v1.551h2.041v.361h-2.041v1.675h-.417v-3.947h2.706v.361H294.672zM301.5 480.851c0-1.15.879-2.007 2.075-2.007 1.184 0 2.069.851 2.069 2.007 0 1.156-.885 2.007-2.069 2.007C302.379 482.858 301.5 482.002 301.5 480.851zM305.226 480.851c0-.942-.705-1.635-1.652-1.635-.953 0-1.663.693-1.663 1.635 0 .941.71 1.635 1.663 1.635C304.522 482.486 305.226 481.793 305.226 480.851zM313.351 482.825l-.902-1.269c-.102.011-.203.017-.316.017h-1.06v1.252h-.417v-3.947h1.477c1.004 0 1.613.507 1.613 1.353 0 .62-.327 1.054-.902 1.24l.964 1.353H313.351zM313.328 480.231c0-.632-.417-.992-1.207-.992h-1.048v1.979h1.048C312.911 481.218 313.328 480.851 313.328 480.231zM322.907 478.878v3.947h-.4v-3.158l-1.551 2.656h-.197l-1.551-2.639v3.14h-.4v-3.947h.344l1.714 2.926 1.697-2.926H322.907zM330.744 481.77h-2.199l-.473 1.054h-.434l1.804-3.947h.411l1.804 3.947h-.44L330.744 481.77zM330.592 481.432l-.947-2.12-.947 2.12H330.592zM336.957 479.239h-1.387v-.361h3.192v.361h-1.387v3.586h-.417V479.239zM343.063 482.346l.164-.321c.282.276.784.479 1.302.479.739 0 1.06-.31 1.06-.699 0-1.083-2.43-.417-2.43-1.877 0-.581.451-1.083 1.455-1.083.446 0 .908.13 1.224.35l-.141.333c-.338-.22-.733-.327-1.083-.327-.722 0-1.043.321-1.043.716 0 1.083 2.43.429 2.43 1.866 0 .581-.462 1.077-1.472 1.077C343.937 482.858 343.356 482.65 343.063 482.346z" class="colorfff svgShape"></path></g><g><path fill="#000000" d="M475,248.959c0-0.189,0-0.189,0-0.378c0-0.378-0.189-0.568-0.189-0.757c0-0.189,0-0.189,0-0.378
			c-0.189-0.378-0.189-0.757-0.378-0.946c0,0,0,0,0-0.189c-0.189-0.378-0.378-0.757-0.568-0.946c0,0,0,0,0-0.189L366.001,58.4
			c0,0,0,0,0-0.189c-0.189-0.378-0.378-0.568-0.757-0.946l0,0c-0.189-0.378-0.378-0.568-0.757-0.757l-0.189-0.189
			c-0.189-0.189-0.378-0.378-0.568-0.568c-0.189,0-0.189-0.189-0.189-0.189c-0.378-0.189-0.568-0.378-0.946-0.568l0,0l0,0
			c-0.378-0.189-0.757-0.378-0.946-0.568c0,0-0.189,0-0.189-0.189c-0.189-0.189-0.568-0.189-0.757-0.189s-0.189,0-0.189,0
			c-0.378-0.189-0.757-0.189-0.946-0.189l0,0c-0.378,0-0.757,0-1.135,0l0,0H142.136l0,0c-0.378,0-0.757,0-1.135,0h-0.189
			c-0.378,0-0.757,0.189-0.946,0.189h-0.189c-0.189,0-0.568,0.189-0.757,0.189c-0.189,0-0.189,0-0.378,0.189
			c-0.378,0.189-0.757,0.378-0.946,0.568l0,0c-0.378,0.189-0.757,0.378-0.946,0.757c-0.189,0.189-0.378,0.378-0.568,0.378
			c-0.189,0.189-0.378,0.189-0.378,0.378c-0.189,0.189-0.378,0.378-0.568,0.568c0,0.189-0.189,0.189-0.189,0.378
			c-0.189,0.189-0.378,0.378-0.568,0.757l-0.189,0.189l0,0l0,0L58.305,189.918c-2.649,4.542-0.946,10.408,3.406,12.868
			c4.352,2.46,10.219,1.135,12.868-3.406l67.557-117.325l21.951,38.036L94.449,240.633H34.083c-0.189,0-0.378,0-0.568,0
			s-0.189,0-0.378,0c-0.189,0-0.378,0-0.568,0s-0.189,0-0.378,0c-0.189,0-0.378,0.189-0.378,0.189c-0.189,0-0.378,0-0.378,0.189
			c-0.189,0-0.189,0-0.378,0.189c-0.189,0-0.378,0.189-0.568,0.189c-0.189,0-0.189,0.189-0.378,0.189
			c-0.189,0.189-0.378,0.189-0.568,0.189c0,0,0,0-0.189,0c-0.189,0-0.189,0-0.189,0.189c-0.189,0.189-0.568,0.378-0.757,0.568
			c-0.189,0-0.189,0.189-0.189,0.189c-0.189,0.189-0.568,0.378-0.757,0.757l-0.189,0.189c-0.189,0.189-0.378,0.378-0.568,0.568
			c0,0.189-0.189,0.189-0.189,0.378c-0.189,0.189-0.378,0.378-0.378,0.757c0,0.189-0.189,0.189-0.189,0.189
			c-0.189,0.378-0.378,0.757-0.378,0.946v0.189c-0.189,0.378-0.189,0.568-0.378,0.946v0.189c0,0.189-0.189,0.568-0.189,0.757
			c0,0.189,0,0.189,0,0.378c0,0.378,0,0.757,0,0.946v0.189c0,0.378,0,0.568,0,0.946c0,0.189,0,0.189,0,0.378
			c0,0.189,0.189,0.568,0.189,0.757c0,0.189,0,0.189,0.189,0.378c0,0.378,0.189,0.568,0.378,0.946v0.189
			c0.189,0.378,0.378,0.757,0.568,0.946l0,0l107.864,186.775c1.703,2.839,4.731,4.731,8.137,4.731h215.728l0,0
			c0.378,0,0.757,0,1.135,0l0,0c0.378,0,0.757-0.189,0.946-0.189c0.189,0,0.189,0,0.189,0c0.189-0.189,0.568-0.189,0.757-0.378
			c0,0,0.189,0,0.189-0.189c0.378-0.189,0.757-0.379,0.946-0.568c0.378-0.189,0.568-0.378,0.946-0.568l0.189-0.189
			c0.189-0.189,0.378-0.378,0.568-0.568l0.189-0.189c0.189-0.189,0.378-0.568,0.757-0.757c0,0,0,0,0-0.189
			c0.189-0.379,0.378-0.568,0.568-0.946l0,0l107.864-186.775c0,0,0,0,0-0.189c0.189-0.378,0.378-0.757,0.568-0.946l0,0
			c0.189-0.378,0.189-0.568,0.378-0.946c0-0.189,0-0.189,0-0.378c0-0.189,0.189-0.568,0.189-0.946v-0.189c0-0.378,0-0.757,0-1.135
			C475,249.716,475,249.338,475,248.959z M158.41,72.592H341.4l-21.762,38.036H180.362L158.41,72.592z M233.537,240.633h-51.472
			l25.736-44.659L233.537,240.633z M224.264,186.512h52.04l-26.114,45.038L224.264,186.512z M234.294,259.556l-26.114,45.416
			l-26.114-45.416H234.294z M214.045,332.412l10.786-18.923l25.357-44.092l58.284,101.051h-116.19L214.045,332.412z
			 M266.274,259.556h51.661l-25.736,44.659L266.274,259.556z M302.986,323.139l36.712-63.583H383.6l-58.663,101.619L302.986,323.139
			z M266.842,240.633l25.357-44.281l25.547,44.281H266.842z M287.09,167.588h-73.801l-21.951-38.036h117.515L287.09,167.588z
			 M174.874,139.014l21.951,38.036l-36.712,63.583H116.4L174.874,139.014z M160.114,259.556l37.09,64.34l-21.951,38.036
			l-59.23-102.376L160.114,259.556L160.114,259.556z M147.624,427.407L50.736,259.556h43.902l70.963,122.435l0.757,1.325
			c3.595,4.92,5.488,5.299,11.733,6.056l141.737,0.189l21.951,38.036H147.624V427.407z M357.864,417.946l-21.951-38.036
			l69.638-120.542h43.902L357.864,417.946z M405.551,240.633l-40.875-70.963c-2.649-4.542-8.326-6.056-12.868-3.406
			c-4.542,2.649-6.056,8.326-3.406,12.868l35.387,61.501h-43.902l-36.522-63.204l54.5-95.185l91.4,158.389L405.551,240.633
			L405.551,240.633z" class="color00aebe svgShape"></path></g></svg></g></svg>